<?xml version="1.0" standalone="no"?>
<!DOCTYPE svg PUBLIC "-//W3C//DTD SVG 20010904//EN"
 "http://www.w3.org/TR/2001/REC-SVG-20010904/DTD/svg10.dtd">
<svg version="1.0" xmlns="http://www.w3.org/2000/svg"
 width="698.000000pt" height="698.000000pt" viewBox="0 0 698.000000 698.000000"
 preserveAspectRatio="xMidYMid meet">
<metadata>
Created by potrace 1.11, written by Peter Selinger 2001-2013
</metadata>
<g transform="translate(0.000000,698.000000) scale(0.100000,-0.100000)"
fill="#000000" stroke="none">
<path d="M3279 6976 c-2 -2 -48 -7 -102 -10 -53 -4 -103 -9 -110 -11 -6 -2
-37 -6 -67 -10 -93 -10 -338 -62 -470 -100 -450 -129 -853 -338 -1224 -635
-134 -107 -368 -332 -472 -455 -410 -484 -694 -1096 -788 -1700 -35 -220 -41
-309 -41 -575 1 -303 18 -472 79 -757 23 -107 92 -336 139 -463 57 -151 180
-412 240 -507 15 -24 27 -45 27 -47 0 -10 166 -255 224 -331 328 -429 740
-768 1224 -1010 340 -169 740 -293 1072 -331 30 -3 64 -8 75 -10 88 -19 538
-26 709 -11 238 20 519 77 756 152 63 20 124 40 135 44 11 5 63 26 115 46 405
160 813 429 1133 748 231 229 360 388 509 627 234 375 392 772 473 1185 11 61
13 72 25 150 6 44 13 91 15 104 26 155 26 686 1 831 -2 14 -7 50 -10 80 -10
90 -65 345 -102 474 -137 477 -373 916 -703 1306 -72 85 -297 311 -386 386
-338 287 -749 519 -1155 652 -117 39 -252 78 -300 87 -12 2 -29 6 -38 9 -52
16 -277 53 -429 71 -48 6 -549 16 -554 11z m531 -399 c14 -3 50 -8 80 -11 455
-50 972 -249 1370 -529 232 -163 505 -420 667 -628 80 -103 199 -275 226 -327
8 -15 31 -56 52 -92 95 -166 198 -412 254 -605 17 -60 35 -123 40 -140 13 -40
48 -217 57 -280 3 -27 8 -58 10 -68 19 -103 27 -597 10 -727 -4 -36 -10 -80
-12 -99 -2 -19 -6 -47 -9 -63 -3 -15 -7 -43 -11 -60 -67 -397 -230 -807 -457
-1153 -60 -91 -123 -181 -142 -201 -5 -6 -23 -29 -40 -50 -60 -77 -92 -112
-225 -245 -74 -75 -185 -176 -246 -225 -99 -79 -282 -209 -339 -240 -11 -6
-49 -28 -85 -49 -158 -91 -424 -205 -600 -258 -219 -66 -387 -99 -637 -127
-79 -9 -566 -6 -613 3 -14 3 -50 8 -80 12 -106 14 -115 15 -130 20 -8 2 -33 7
-55 11 -22 3 -107 23 -190 44 -416 108 -776 287 -1135 564 -123 95 -399 366
-489 481 -34 44 -70 89 -78 100 -34 40 -172 253 -215 330 -191 339 -330 756
-373 1120 -4 28 -9 61 -12 75 -9 43 -11 552 -2 625 4 39 11 92 14 118 7 63 53
298 70 362 35 126 44 156 77 251 158 446 389 814 728 1155 85 85 178 173 205
195 28 21 52 42 55 45 10 12 158 118 245 176 355 236 791 403 1220 469 17 2
42 6 57 9 15 2 63 7 105 11 43 4 80 8 82 10 6 6 523 -3 551 -9z"/>
<path d="M2200 5019 c-263 -93 -345 -425 -155 -628 26 -28 66 -61 89 -74 154
-86 347 -58 467 66 77 80 113 170 111 280 -2 145 -86 274 -220 339 -57 27 -80
32 -152 34 -63 2 -99 -3 -140 -17z"/>
<path d="M4535 5022 c-96 -34 -155 -80 -210 -167 -95 -150 -72 -345 56 -473
149 -149 374 -155 529 -14 209 188 158 517 -100 639 -73 35 -200 42 -275 15z"/>
<path d="M1725 2954 c-77 -29 -145 -54 -151 -54 -5 0 -19 -6 -29 -14 -18 -13
-18 -16 14 -92 158 -381 450 -720 801 -931 85 -51 241 -130 296 -150 16 -6 61
-23 99 -37 63 -24 158 -52 208 -62 10 -2 27 -6 37 -9 25 -8 40 -11 160 -30 96
-15 167 -19 325 -19 99 -1 207 3 240 7 33 4 80 10 105 13 186 21 556 145 692
230 21 13 40 24 43 24 16 0 212 136 290 202 96 81 216 202 280 283 22 28 42
52 45 55 8 8 104 152 116 175 6 11 25 45 42 75 17 30 51 101 76 157 l44 101
-180 68 c-102 38 -183 63 -187 58 -4 -5 -16 -29 -25 -54 -69 -180 -217 -395
-381 -551 -192 -184 -441 -322 -715 -397 -223 -61 -564 -78 -785 -38 -423 76
-750 259 -1020 571 -67 78 -175 244 -216 335 -18 39 -37 83 -48 113 -6 15 -16
27 -23 26 -7 -1 -76 -25 -153 -55z"/>
</g>
</svg>
